<svg width="40" height="40" viewBox="0 0 40 40" fill="none" xmlns="http://www.w3.org/2000/svg">
<path d="M24.7169 0C28.6334 0 32.5497 1.49029 35.5298 4.47119C41.4901 10.433 41.4901 20.1408 35.5298 26.1026C32.5497 29.0835 28.6431 30.5745 24.6965 30.5745C20.7498 30.5745 16.8433 29.0835 13.8632 26.1026C7.94318 20.1408 7.94381 10.433 13.9041 4.47119C16.8842 1.49029 20.8005 0 24.7169 0ZM24.7366 2.37682C21.4343 2.37682 18.1322 3.62495 15.6353 6.16274C10.6013 11.198 10.6014 19.3757 15.5952 24.411C20.6292 29.4463 28.8047 29.4463 33.8387 24.411C38.8727 19.3757 38.8727 11.198 33.8387 6.16274C31.3418 3.66523 28.0389 2.37682 24.7366 2.37682ZM24.7366 4.79377C27.5154 4.79377 30.1334 5.88108 32.1067 7.8952C33.9995 9.78848 35.0464 12.2459 35.1672 14.9045C35.2075 15.5893 34.6838 16.1128 33.9992 16.1531H33.959C33.3147 16.1531 32.7912 15.6293 32.7509 14.9848C32.6703 12.9304 31.8251 11.0369 30.4156 9.58675C28.8852 8.05602 26.871 7.21072 24.7366 7.21072C24.052 7.21072 23.5284 6.68704 23.5284 6.00224C23.5284 5.31744 24.052 4.79377 24.7366 4.79377ZM31.704 19.9799C32.0244 19.9799 32.3317 20.1073 32.5583 20.3339C32.7848 20.5605 32.9121 20.8679 32.9121 21.1884C32.9121 21.5089 32.7848 21.8163 32.5583 22.0429C32.3317 22.2696 32.0244 22.3969 31.704 22.3969C31.3835 22.3969 31.0762 22.2696 30.8497 22.0429C30.6231 21.8163 30.4958 21.5089 30.4958 21.1884C30.4958 20.8679 30.6231 20.5605 30.8497 20.3339C31.0762 20.1073 31.3835 19.9799 31.704 19.9799ZM12.2271 26.6265C12.5342 26.6265 12.8362 26.7475 13.0577 26.9892C13.541 27.4726 13.541 28.2377 13.0577 28.6808L12.0509 29.6879C12.2926 30.1712 12.4135 30.6951 12.4135 31.259C12.4135 32.2258 12.0512 33.1525 11.3666 33.8373L6.21148 38.9127C5.48659 39.6378 4.56096 40 3.6347 40C2.70845 40 1.78204 39.6376 1.05714 38.9528C-0.352379 37.5429 -0.352379 35.2471 1.05714 33.8373L6.21148 28.6808C6.89611 27.996 7.82252 27.6336 8.78905 27.6336C9.35286 27.6336 9.87655 27.7546 10.3598 27.9963L11.3666 26.9892C11.6082 26.7475 11.92 26.6265 12.2271 26.6265ZM8.78905 30.0104C8.46687 30.0104 8.14485 30.1314 7.94349 30.3731L2.82927 35.4887C2.346 35.9721 2.346 36.7371 2.82927 37.1802C3.31253 37.6636 4.07738 37.6636 4.52037 37.1802L9.6346 32.1048C9.87623 31.8631 9.99721 31.5412 9.99721 31.2189C9.99721 30.8966 9.87623 30.5745 9.6346 30.3731C9.39297 30.1314 9.11122 30.0104 8.78905 30.0104Z" fill="white"/>
</svg>
